<svg xmlns="http://www.w3.org/2000/svg" viewBox="0 0 100 100" width="50px" height="50px">
  <path d="M 30.611328 7.0253906 C 22.979328 7.0253906 17 13.005297 17 20.654297 C 17.123 28.151297 23.228328 34.25 30.611328 34.25 C 38.117328 34.25 44.222656 28.144672 44.222656 20.638672 C 44.222656 13.132672 38.117328 7.0253906 30.611328 7.0253906 z M 30.611328 9.0253906 C 37.015328 9.0253906 42.222656 14.235672 42.222656 20.638672 C 42.222656 27.041672 37.014328 32.25 30.611328 32.25 C 24.313328 32.25 19.104 27.034672 19 20.638672 C 19 14.127672 24.101328 9.0253906 30.611328 9.0253906 z M 30.611328 12.027344 C 25.783328 12.027344 21.999047 15.776266 21.998047 20.572266 C 22.077047 25.356266 25.941328 29.25 30.611328 29.25 C 32.857328 29.25 34.984562 28.386312 36.601562 26.820312 C 36.800562 26.628312 36.804281 26.311281 36.613281 26.113281 C 36.421281 25.915281 36.10425 25.911516 35.90625 26.103516 C 34.47625 27.488516 32.596328 28.251953 30.611328 28.251953 C 26.483328 28.251953 23.069 24.798453 23 20.564453 C 23.001 16.337453 26.343328 13.027344 30.611328 13.027344 C 33.032328 13.027344 35.332625 14.200062 36.765625 16.164062 C 36.929625 16.387063 37.242844 16.436438 37.464844 16.273438 C 37.686844 16.110437 37.734266 15.797219 37.572266 15.574219 C 35.951266 13.353219 33.349328 12.027344 30.611328 12.027344 z M 70.638672 13.025391 C 63.202672 13.025391 57.152344 19.076672 57.152344 26.513672 C 57.152344 33.950672 63.201672 40 70.638672 40 C 78.074672 40 84.125 33.950672 84.125 26.513672 C 84.125 19.076672 78.074672 13.025391 70.638672 13.025391 z M 70.638672 15.025391 C 76.972672 15.025391 82.125 20.179672 82.125 26.513672 C 82.125 32.847672 76.972672 38 70.638672 38 C 64.304672 38 59.152344 32.847672 59.152344 26.513672 C 59.152344 20.179672 64.304672 15.025391 70.638672 15.025391 z M 70.638672 17.982422 C 69.904672 17.982422 69.176609 18.074766 68.474609 18.259766 C 67.710609 18.460766 66.977828 18.766922 66.298828 19.169922 C 66.060828 19.311922 65.981047 19.617469 66.123047 19.855469 C 66.264047 20.093469 66.571594 20.17225 66.808594 20.03125 C 67.408594 19.67525 68.054516 19.403562 68.728516 19.226562 C 69.347516 19.064563 69.990672 18.982422 70.638672 18.982422 C 74.790672 18.982422 78.169922 22.360672 78.169922 26.513672 C 78.169922 29.677672 76.168453 32.523609 73.189453 33.599609 C 71.768453 34.113609 70.180656 34.181875 68.722656 33.796875 C 68.452656 33.725875 68.182328 33.885344 68.111328 34.152344 C 68.040328 34.419344 68.199797 34.693672 68.466797 34.763672 C 69.171797 34.949672 69.902672 35.044922 70.638672 35.044922 C 71.630672 35.044922 72.603344 34.874063 73.527344 34.539062 C 76.901344 33.322062 79.169922 30.096672 79.169922 26.513672 C 79.169922 21.809672 75.342672 17.982422 70.638672 17.982422 z M 38.724609 20.138672 C 38.448609 20.138672 38.224609 20.362672 38.224609 20.638672 C 38.224609 21.884672 37.914078 23.121844 37.330078 24.214844 C 37.199078 24.458844 37.292156 24.760625 37.535156 24.890625 C 37.610156 24.930625 37.691484 24.949219 37.771484 24.949219 C 37.948484 24.949219 38.121891 24.854547 38.212891 24.685547 C 38.875891 23.448547 39.224609 22.048672 39.224609 20.638672 C 39.224609 20.362672 39.000609 20.138672 38.724609 20.138672 z M 64.535156 20.763672 C 64.408781 20.772422 64.286766 20.830094 64.197266 20.933594 C 63.805266 21.385594 63.459922 21.879297 63.169922 22.404297 C 63.037922 22.643297 63.124281 22.944172 63.363281 23.076172 C 63.439281 23.118172 63.520562 23.138672 63.601562 23.138672 C 63.774562 23.138672 63.943156 23.047766 64.035156 22.884766 C 64.291156 22.420766 64.597313 21.981031 64.945312 21.582031 C 65.124313 21.375031 65.101531 21.063766 64.894531 20.884766 C 64.791531 20.795266 64.661531 20.754922 64.535156 20.763672 z M 62.607422 26.019531 C 62.334422 26.019531 62.111328 26.240672 62.111328 26.513672 C 62.111328 28.513672 62.821328 30.461141 64.111328 31.994141 C 64.525328 32.487141 64.996672 32.935219 65.513672 33.324219 C 65.602672 33.391219 65.7085 33.423828 65.8125 33.423828 C 65.9615 33.423828 66.108031 33.355562 66.207031 33.226562 C 66.371031 33.008563 66.328375 32.698203 66.109375 32.533203 C 65.783553 32.287407 65.487065 32.00777 65.205078 31.712891 L 63.203125 27.705078 C 63.139864 27.312709 63.101562 26.914679 63.101562 26.513672 C 63.101562 26.240672 62.880422 26.019531 62.607422 26.019531 z M 25.4375 36.095703 C 23.046453 36.058156 20.466563 36.330109 18.914062 37.943359 C 17.832063 39.068359 17.210938 40.866 17.210938 42.875 C 17.210937 46.343 17.188969 55.122016 17.167969 63.791016 C 17.146969 72.246016 17.125 80.5965 17.125 83.8125 C 17.125 87.8405 19.740188 90.853516 23.367188 90.978516 C 25.009187 90.994516 26.597391 91 28.150391 91 C 29.715391 91 31.243719 90.995234 32.761719 90.990234 C 34.248719 90.984234 35.724031 90.978516 37.207031 90.978516 C 38.987031 90.978516 40.6665 90.257266 41.9375 88.947266 C 43.3435 87.497266 44.081578 85.521625 44.017578 83.390625 C 43.959578 80.576625 44.014594 71.616969 44.058594 64.417969 C 44.083594 60.395969 44.105469 56.7935 44.105469 54.8125 C 44.105469 54.5565 44.106453 54.541234 44.939453 54.240234 C 47.097453 53.692234 48.804313 53.626766 50.820312 54.009766 C 54.447313 54.794766 56.864203 57.578125 57.283203 61.453125 C 57.500203 63.525125 57.726562 65.668859 57.726562 67.755859 C 57.745562 70.470859 57.671563 72.958234 57.601562 75.365234 C 57.518562 78.195234 57.439 80.868688 57.5 83.804688 C 57.5 88.163687 60.159391 90.978516 64.275391 90.978516 L 68.097656 90.974609 C 70.741656 90.970609 73.494031 90.964516 76.832031 90.978516 L 76.882812 90.978516 C 79.401813 90.978516 81.486063 90.227641 82.914062 88.806641 C 84.195063 87.530641 84.873047 85.779234 84.873047 83.740234 L 84.869141 48.535156 C 84.740141 47.114156 83.831719 45.83425 82.386719 45.03125 C 81.503719 44.52625 80.759578 44.165969 79.767578 43.917969 C 76.440578 43.114969 73.313734 42.958781 69.927734 43.425781 C 68.468734 43.624781 66.994359 43.940094 65.568359 44.246094 C 64.516359 44.472094 63.452891 44.702484 62.337891 44.896484 C 59.081891 45.569484 55.327203 46.217438 52.158203 45.898438 C 48.458203 45.509438 45.378531 44.270187 41.519531 41.617188 L 36.447266 38.236328 C 33.953266 36.660328 30.814922 36.349953 28.669922 36.251953 C 28.376922 36.238953 28.058703 36.217266 27.720703 36.197266 C 27.010453 36.154266 26.234516 36.108219 25.4375 36.095703 z M 25.085938 38.097656 C 25.974937 38.097656 26.849609 38.149359 27.599609 38.193359 C 27.946609 38.214359 28.275125 38.234047 28.578125 38.248047 C 30.495125 38.335047 33.285422 38.603109 35.357422 39.912109 L 40.398438 43.273438 C 44.544438 46.122437 47.890125 47.458719 51.953125 47.886719 C 55.381125 48.229719 59.165937 47.592375 62.710938 46.859375 C 63.820938 46.665375 64.910281 46.432172 65.988281 46.201172 C 67.441281 45.889172 68.814219 45.593297 70.199219 45.404297 C 73.374219 44.967297 76.178062 45.106422 79.289062 45.857422 C 80.053062 46.048422 80.639297 46.336438 81.404297 46.773438 C 81.914297 47.057437 82.783047 47.686 82.873047 48.625 L 82.873047 83.736328 C 82.873047 85.231328 82.400906 86.493719 81.503906 87.386719 C 80.452906 88.433719 78.878844 88.983563 76.839844 88.976562 C 73.496844 88.962563 70.73975 88.968656 68.09375 88.972656 L 64.275391 88.976562 C 61.240391 88.976562 59.5 87.09025 59.5 83.78125 C 59.441 80.87525 59.519562 78.225875 59.601562 75.421875 C 59.672563 72.996875 59.745562 70.490094 59.726562 67.746094 C 59.726562 65.560094 59.495484 63.364281 59.271484 61.238281 C 58.762484 56.533281 55.68675 53.014828 51.21875 52.048828 C 48.90175 51.607828 46.878266 51.683781 44.447266 52.300781 C 44.416266 52.308781 44.292672 52.350328 44.263672 52.361328 C 43.353672 52.686328 42.105469 53.1305 42.105469 54.8125 C 42.105469 56.7915 42.082594 60.387297 42.058594 64.404297 C 42.012594 71.991297 41.959578 80.589453 42.017578 83.439453 C 42.065578 85.034453 41.527953 86.496687 40.501953 87.554688 C 39.610953 88.473687 38.439078 88.978516 37.205078 88.978516 C 35.720078 88.978516 34.243906 88.983281 32.753906 88.988281 C 29.740906 88.999281 26.676156 89.010516 23.410156 88.978516 C 20.466156 88.876516 19.125 86.2295 19.125 83.8125 C 19.125 80.5975 19.146969 72.248922 19.167969 63.794922 C 19.189969 55.124922 19.210938 46.343 19.210938 42.875 C 19.210938 41.4 19.638469 40.075078 20.355469 39.330078 C 21.320469 38.326078 23.232937 38.097656 25.085938 38.097656 z M 22.677734 44.230469 C 22.402734 44.230469 22.178734 44.454469 22.177734 44.730469 L 22.091797 83.671875 C 22.100797 85.068875 22.634937 85.811766 23.710938 85.884766 C 25.308937 85.900766 26.854187 85.90625 28.367188 85.90625 C 29.715187 85.90625 31.035703 85.901484 32.345703 85.896484 L 32.998047 85.894531 C 34.480047 85.888531 35.946828 85.882812 37.423828 85.882812 C 37.844828 85.882812 38.240406 85.706094 38.566406 85.371094 C 39.022406 84.900094 39.260328 84.197484 39.236328 83.396484 C 39.194328 81.358484 39.226719 76.246938 39.261719 70.835938 C 39.280719 67.773938 39.300594 64.610891 39.308594 61.837891 C 39.309594 61.561891 39.084594 61.336937 38.808594 61.335938 C 38.533594 61.335938 38.309594 61.560938 38.308594 61.835938 C 38.300594 64.608937 38.281719 67.769078 38.261719 70.830078 C 38.226719 76.248078 38.194328 81.365875 38.236328 83.421875 C 38.252328 83.954875 38.113656 84.401781 37.847656 84.675781 C 37.665656 84.863781 37.518828 84.884766 37.423828 84.884766 C 35.945828 84.884766 34.477031 84.889531 32.957031 84.894531 L 32.341797 84.896484 C 29.565797 84.905484 26.712 84.913719 23.75 84.886719 C 23.476 84.867719 23.098797 84.841922 23.091797 83.669922 L 23.177734 44.732422 C 23.178734 44.456422 22.955687 44.230469 22.679688 44.230469 L 22.677734 44.230469 z M 40.804688 49.697266 C 40.741141 49.709453 40.678094 49.735188 40.621094 49.773438 C 39.073094 50.805437 38.322266 52.42275 38.322266 54.71875 L 38.318359 57.498047 C 38.317359 57.774047 38.541359 58 38.818359 58 C 39.094359 58 39.317359 57.777953 39.318359 57.501953 L 39.322266 54.71875 C 39.322266 52.75575 39.909781 51.449469 41.175781 50.605469 C 41.405781 50.452469 41.467453 50.141109 41.314453 49.912109 C 41.198203 49.738859 40.995328 49.660703 40.804688 49.697266 z M 58.470703 51.212891 C 58.342953 51.219891 58.216547 51.275906 58.123047 51.378906 C 57.939047 51.584906 57.956109 51.901938 58.162109 52.085938 C 58.313109 52.220937 58.459469 52.359906 58.605469 52.503906 C 58.865469 52.761906 59.114562 53.030547 59.351562 53.310547 C 59.451563 53.427547 59.592375 53.488281 59.734375 53.488281 C 59.849375 53.488281 59.963641 53.448141 60.056641 53.369141 C 60.267641 53.190141 60.293234 52.874063 60.115234 52.664062 C 59.858234 52.361063 59.590547 52.071922 59.310547 51.794922 C 59.154547 51.638922 58.993125 51.486844 58.828125 51.339844 C 58.726625 51.247844 58.598453 51.205891 58.470703 51.212891 z M 79.558594 52.035156 C 79.282594 52.035156 79.058594 52.259156 79.058594 52.535156 L 79.058594 70.625 C 79.058594 70.901 79.282594 71.125 79.558594 71.125 C 79.834594 71.125 80.058594 70.901 80.058594 70.625 L 80.058594 52.535156 C 80.058594 52.259156 79.834594 52.035156 79.558594 52.035156 z M 61.380859 55.017578 C 61.316031 55.022516 61.250703 55.040516 61.189453 55.072266 C 60.944453 55.198266 60.847609 55.499141 60.974609 55.744141 C 61.769609 57.287141 62.274656 59.001891 62.472656 60.837891 C 62.499656 61.093891 62.71675 61.283203 62.96875 61.283203 C 62.98675 61.283203 63.005391 61.281297 63.025391 61.279297 C 63.299391 61.249297 63.49775 61.002516 63.46875 60.728516 C 63.25675 58.769516 62.716281 56.939109 61.863281 55.287109 C 61.768781 55.103359 61.575344 55.002766 61.380859 55.017578 z M 63.279297 63.939453 C 63.004297 63.959453 62.796406 64.199609 62.816406 64.474609 C 62.902406 65.633609 62.943359 66.663953 62.943359 67.626953 C 62.959359 70.137953 62.943781 72.384453 62.925781 74.564453 C 62.915781 75.753453 62.867312 76.964172 62.820312 78.201172 C 62.752313 79.983172 62.681797 81.82675 62.716797 83.71875 C 62.756797 85.86375 64.087141 86.03125 64.494141 86.03125 L 72.46875 86.021484 C 73.89775 86.021484 75.413562 86.02425 77.101562 86.03125 C 79.626563 86.03125 79.831031 85.021359 79.832031 83.818359 L 80.058594 76.96875 C 80.067594 76.69275 79.852172 76.460172 79.576172 76.451172 L 79.558594 76.451172 C 79.289594 76.451172 79.067594 76.664547 79.058594 76.935547 L 78.832031 83.802734 C 78.832031 84.696734 78.832516 85.029297 77.103516 85.029297 C 75.414516 85.022297 73.90075 85.021484 72.46875 85.021484 L 64.492188 85.029297 C 63.871188 85.029297 63.727797 84.306219 63.716797 83.699219 C 63.682797 81.836219 63.753312 80.008234 63.820312 78.240234 C 63.867312 76.993234 63.915781 75.770266 63.925781 74.572266 C 63.943781 72.388266 63.960359 70.136047 63.943359 67.623047 C 63.943359 66.638047 63.901453 65.583391 63.814453 64.400391 C 63.794453 64.124391 63.557297 63.913453 63.279297 63.939453 z" fill="#000000" />
</svg>